<svg width="641" height="460" viewBox="0 0 641 460" fill="none" xmlns="http://www.w3.org/2000/svg">
<path fill-rule="evenodd" clip-rule="evenodd" d="M316.628 0.0609578C319.315 -0.103042 321.982 0.0639578 324.628 0.560958C376.204 25.517 427.871 50.183 479.628 74.561C486.179 76.566 488.512 80.733 486.628 87.061C478.046 91.255 469.379 95.255 460.628 99.061C459.628 125.052 459.295 151.052 459.628 177.061C454.628 177.061 449.628 177.061 444.628 177.061C444.628 152.061 444.628 127.061 444.628 102.061C409.828 90.774 374.828 79.941 339.628 69.561C335.788 57.139 327.455 52.139 314.628 54.561C299.891 63.695 298.891 74.028 311.628 85.561C318.611 88.042 325.111 87.209 331.128 83.061C362.943 93.473 394.776 103.806 426.628 114.061C394.15 129.13 361.483 143.963 328.628 158.561C325.859 159.424 323.026 159.924 320.128 160.061C314.519 158.679 309.019 156.846 303.628 154.561C255.016 131.422 206.016 109.089 156.628 87.561C152.628 84.228 152.628 80.894 156.628 77.561C210.237 51.921 263.57 26.088 316.628 0.0609578Z" fill="#FCFDFD"/>
<path fill-rule="evenodd" clip-rule="evenodd" d="M110.628 9.06093C157.796 7.72993 205.13 7.72993 252.628 9.06093C252.504 9.66793 252.171 10.0009 251.628 10.0609C241.141 9.06693 230.474 8.73293 219.628 9.06093C183.295 9.06093 146.961 9.06093 110.628 9.06093Z" fill="#353C4B"/>
<path fill-rule="evenodd" clip-rule="evenodd" d="M110.628 9.06094C146.961 9.06094 183.295 9.06094 219.628 9.06094C219.658 10.0579 219.158 10.7249 218.128 11.0609C205.846 14.1129 195.346 20.1129 186.628 29.0609C163.959 28.8939 141.292 29.0609 118.628 29.5609C104.397 31.6249 96.3971 39.7919 94.6281 54.0609C93.7951 103.893 93.2951 153.893 93.1281 204.061C87.3671 211.275 81.8671 218.608 76.6281 226.061C75.6291 165.897 75.2961 105.563 75.6281 45.0609C79.2001 25.1559 90.8671 13.1559 110.628 9.06094Z" fill="#FDFDFD"/>
<path fill-rule="evenodd" clip-rule="evenodd" d="M424.628 9.06094C461.996 8.59894 499.329 9.09894 536.628 10.5609C550.812 15.5789 560.479 25.0789 565.628 39.0609C565.628 40.7279 565.628 42.3939 565.628 44.0609C565.795 98.3949 565.628 152.729 565.128 207.061C559.461 213.394 553.795 219.728 548.128 226.061C547.961 168.226 547.461 110.56 546.628 53.0609C545.396 41.8289 539.396 34.4959 528.628 31.0609C527.865 30.2929 526.865 29.7929 525.628 29.5609C502.297 29.0609 478.964 28.8939 455.628 29.0609C455.777 28.0089 455.611 27.0089 455.128 26.0609C446.245 17.9929 436.078 12.3269 424.628 9.06094Z" fill="#FDFDFE"/>
<path fill-rule="evenodd" clip-rule="evenodd" d="M219.628 9.06094C230.474 8.73294 241.141 9.06694 251.628 10.0609C238.406 13.7669 226.406 19.9339 215.628 28.5609C205.967 29.0609 196.3 29.2269 186.628 29.0609C195.346 20.1129 205.846 14.1129 218.128 11.0609C219.158 10.7249 219.658 10.0579 219.628 9.06094Z" fill="#B4C2D1"/>
<path fill-rule="evenodd" clip-rule="evenodd" d="M424.628 9.06093C436.078 12.3269 446.245 17.9929 455.128 26.0609C455.611 27.0089 455.777 28.0089 455.628 29.0609C446.295 29.0609 436.961 29.0609 427.628 29.0609C417.219 20.5179 405.553 14.0179 392.628 9.56093C403.289 9.06093 413.956 8.89393 424.628 9.06093Z" fill="#B4BECC"/>
<path fill-rule="evenodd" clip-rule="evenodd" d="M427.628 29.0609C436.961 29.0609 446.295 29.0609 455.628 29.0609C478.964 28.8939 502.297 29.0609 525.628 29.5609C526.865 29.7929 527.865 30.2929 528.628 31.0609C494.815 30.4219 461.148 29.7549 427.628 29.0609Z" fill="#4D505B"/>
<path fill-rule="evenodd" clip-rule="evenodd" d="M140.628 114.061C146.372 113.017 149.872 115.35 151.128 121.061C153.49 130.58 149.99 135.413 140.628 135.561C139.079 134.347 137.913 132.847 137.128 131.061C135.706 124.767 136.872 119.1 140.628 114.061Z" fill="#F5F7F8"/>
<path fill-rule="evenodd" clip-rule="evenodd" d="M180.628 133.061C179.029 130.957 177.196 128.957 175.128 127.061C174.795 127.728 174.461 128.394 174.128 129.061C172.88 126.277 171.047 125.611 168.628 127.061C167.62 121.952 169.287 117.619 173.628 114.061C174.553 115.202 175.387 115.202 176.128 114.061C176.452 116.13 177.286 116.463 178.628 115.061C179.321 117.705 180.988 120.205 183.628 122.561C181.347 124.412 181.347 126.079 183.628 127.561C182.519 129.437 181.519 131.27 180.628 133.061Z" fill="#212B3C"/>
<path fill-rule="evenodd" clip-rule="evenodd" d="M180.628 133.061C179.363 134.04 178.029 135.04 176.628 136.061C171.068 136.07 168.401 133.07 168.628 127.061C171.047 125.611 172.88 126.277 174.128 129.061C174.461 128.394 174.795 127.728 175.128 127.061C177.196 128.957 179.029 130.957 180.628 133.061Z" fill="#434D5E"/>
<path fill-rule="evenodd" clip-rule="evenodd" d="M141.628 149.061C144.78 148.52 147.28 149.52 149.128 152.061C153.176 159.314 152.343 165.814 146.628 171.561C138.959 172.217 135.626 168.55 136.628 160.561C136.26 155.802 137.926 151.968 141.628 149.061Z" fill="#F3F5F6"/>
<path fill-rule="evenodd" clip-rule="evenodd" d="M172.628 149.061C178.532 148.455 182.032 151.122 183.128 157.061C184.24 162.724 182.74 167.557 178.628 171.561C173.158 172.782 169.658 170.615 168.128 165.061C166.904 158.906 168.404 153.573 172.628 149.061Z" fill="#F2F4F5"/>
<path fill-rule="evenodd" clip-rule="evenodd" d="M565.628 39.061C567.123 38.976 568.123 39.642 568.628 41.061C567.975 48.582 567.641 56.249 567.628 64.061C568.371 72.221 569.038 80.388 569.628 88.561C569.236 103.54 569.236 118.54 569.628 133.561C569.062 158.238 568.062 182.738 566.628 207.061C566.96 152.558 566.627 98.225 565.628 44.061C565.628 42.394 565.628 40.728 565.628 39.061Z" fill="#030913"/>
<path fill-rule="evenodd" clip-rule="evenodd" d="M266.628 194.061C291.332 199.453 316.332 201.286 341.628 199.561C356.943 197.415 372.276 195.415 387.628 193.561C398.039 191.646 407.873 188.146 417.128 183.061C417.527 183.289 417.693 183.623 417.628 184.061C412.005 190.511 405.338 195.678 397.628 199.561C376.992 210.16 354.992 215.826 331.628 216.561C305.834 218.206 280.834 214.539 256.628 205.561C243.283 199.974 231.783 191.807 222.128 181.061C220.062 177.6 218.562 173.934 217.628 170.061C217.479 169.009 217.645 168.009 218.128 167.061C224.134 175.731 231.967 182.231 241.628 186.561C249.74 189.838 258.073 192.338 266.628 194.061Z" fill="#F9FAFB"/>
<path fill-rule="evenodd" clip-rule="evenodd" d="M75.6281 45.0609C75.2961 105.563 75.6291 165.897 76.6281 226.061C76.2861 226.899 75.6201 227.233 74.6281 227.061C74.2961 166.225 74.6291 105.559 75.6281 45.0609Z" fill="#E4E6E9"/>
<path fill-rule="evenodd" clip-rule="evenodd" d="M242.628 175.061C242.987 176.932 243.987 178.432 245.628 179.561C247.368 181.255 249.368 182.422 251.628 183.061C251.479 184.113 251.645 185.113 252.128 186.061C255.179 183.187 257.846 183.52 260.128 187.061C260.542 186.604 261.042 186.27 261.628 186.061C262.461 188.061 263.295 190.061 264.128 192.061C265.201 191.281 266.368 191.448 267.628 192.561C267.072 192.944 266.739 193.444 266.628 194.061C258.073 192.338 249.74 189.838 241.628 186.561C231.967 182.231 224.134 175.731 218.128 167.061C217.645 168.009 217.479 169.009 217.628 170.061C216.473 162.906 216.306 155.573 217.128 148.061C223.376 159.256 231.876 168.256 242.628 175.061Z" fill="#ACBBC8"/>
<path fill-rule="evenodd" clip-rule="evenodd" d="M140.628 185.061C146.091 184.345 149.591 186.678 151.128 192.061C153.49 201.58 149.99 206.413 140.628 206.561C139.079 205.347 137.913 203.847 137.128 202.061C135.706 195.767 136.872 190.1 140.628 185.061Z" fill="#F7F8F9"/>
<path fill-rule="evenodd" clip-rule="evenodd" d="M171.628 185.061C180.826 185.064 184.659 189.731 183.128 199.061C182.043 205.167 178.543 207.667 172.628 206.561C168.339 203.026 166.839 198.526 168.128 193.061C169.049 190.225 170.216 187.559 171.628 185.061Z" fill="#F6F7F8"/>
<path fill-rule="evenodd" clip-rule="evenodd" d="M417.628 184.061C417.693 183.623 417.527 183.289 417.128 183.061C407.873 188.146 398.039 191.646 387.628 193.561C372.276 195.415 356.943 197.415 341.628 199.561C316.332 201.286 291.332 199.453 266.628 194.061C266.739 193.444 267.072 192.944 267.628 192.561C266.368 191.448 265.201 191.281 264.128 192.061C263.295 190.061 262.461 188.061 261.628 186.061C261.042 186.27 260.542 186.604 260.128 187.061C257.846 183.52 255.179 183.187 252.128 186.061C251.645 185.113 251.479 184.113 251.628 183.061C249.368 182.422 247.368 181.255 245.628 179.561C243.987 178.432 242.987 176.932 242.628 175.061C273.874 193.143 307.541 199.643 343.628 194.561C368.251 191.579 390.584 182.913 410.628 168.561C416.924 163.272 422.09 157.105 426.128 150.061C426.795 157.061 426.795 164.061 426.128 171.061C424.265 176.144 421.432 180.477 417.628 184.061Z" fill="#A5B0BD"/>
<path fill-rule="evenodd" clip-rule="evenodd" d="M438.628 193.061C446.628 193.061 454.628 193.061 462.628 193.061C462.795 206.065 462.628 219.065 462.128 232.061C459.082 235.471 455.249 236.805 450.628 236.061C445.491 237.116 441.657 235.45 439.128 231.061C438.628 218.399 438.461 205.732 438.628 193.061Z" fill="#FBFCFC"/>
<path fill-rule="evenodd" clip-rule="evenodd" d="M399.628 251.061C393.828 250.26 390.828 246.927 390.628 241.061C394.975 236.875 398.808 232.208 402.128 227.061C402.461 224.728 402.795 222.394 403.128 220.061C407.295 216.561 411.461 213.061 415.628 209.561C416.912 208.877 418.079 209.044 419.128 210.061C421.914 221.907 419.247 232.24 411.128 241.061C407.699 245 403.865 248.333 399.628 251.061Z" fill="#F5F6F7"/>
<path fill-rule="evenodd" clip-rule="evenodd" d="M142.628 219.061C147.089 219.351 149.923 221.684 151.128 226.061C152.135 230.672 151.468 235.006 149.128 239.061C146.157 242.653 142.824 242.986 139.128 240.061C134.922 232.066 136.089 225.066 142.628 219.061Z" fill="#F5F6F7"/>
<path fill-rule="evenodd" clip-rule="evenodd" d="M172.628 220.061C179.887 219.987 183.554 223.653 183.628 231.061C183.648 237.052 180.815 240.719 175.128 242.061C170.193 240.228 167.693 236.561 167.628 231.061C167.961 226.731 169.628 223.065 172.628 220.061Z" fill="#F2F3F4"/>
<path fill-rule="evenodd" clip-rule="evenodd" d="M565.628 44.0609C566.627 98.2249 566.96 152.558 566.628 207.061C566.628 221.394 566.628 235.728 566.628 250.061C559.961 250.061 553.295 250.061 546.628 250.061C546.628 184.394 546.628 118.728 546.628 53.0609C547.461 110.56 547.961 168.226 548.128 226.061C553.795 219.728 559.461 213.394 565.128 207.061C565.628 152.729 565.795 98.3949 565.628 44.0609Z" fill="#A6B2C0"/>
<path fill-rule="evenodd" clip-rule="evenodd" d="M94.6282 54.0609C94.6282 119.394 94.6282 184.728 94.6282 250.061C87.9612 250.061 81.2952 250.061 74.6282 250.061C74.6282 242.394 74.6282 234.728 74.6282 227.061C75.6202 227.233 76.2862 226.899 76.6282 226.061C81.8672 218.608 87.3672 211.275 93.1282 204.061C93.2952 153.893 93.7952 103.893 94.6282 54.0609Z" fill="#A9B7C4"/>
<path fill-rule="evenodd" clip-rule="evenodd" d="M222.628 209.061C224.783 208.933 226.783 209.433 228.628 210.561C231.81 213.91 235.143 217.077 238.628 220.061C240.124 227.578 243.79 233.912 249.628 239.061C256.772 245.028 264.772 249.528 273.628 252.561C278.377 256.677 278.71 261.01 274.628 265.561C250.639 261.942 233.806 248.775 224.128 226.061C222.777 220.489 222.277 214.823 222.628 209.061Z" fill="#3D4B5E"/>
<path fill-rule="evenodd" clip-rule="evenodd" d="M390.628 241.061C390.828 246.927 393.828 250.26 399.628 251.061C397.215 253.448 394.548 255.615 391.628 257.561C382.555 262.245 373.221 265.912 363.628 268.561C357.025 265.547 356.025 261.213 360.628 255.561C371.328 252.043 381.328 247.21 390.628 241.061Z" fill="#3E4A5B"/>
<path fill-rule="evenodd" clip-rule="evenodd" d="M424.628 307.061C422.932 307.246 421.599 308.08 420.628 309.561C422.812 309.682 424.812 309.182 426.628 308.061C440.625 304.041 454.958 301.874 469.628 301.561C487.639 300.879 505.639 301.046 523.628 302.061C545.422 304.237 567.422 305.737 589.628 306.561C590.128 307.061 590.628 307.561 591.128 308.061C591.795 312.394 591.795 316.728 591.128 321.061C590.628 321.561 590.128 322.061 589.628 322.561C576.295 323.228 562.961 323.228 549.628 322.561C519.696 319.479 489.696 318.479 459.628 319.561C429.677 322.535 402.01 331.868 376.628 347.561C371.961 351.561 367.295 355.561 362.628 359.561C403.928 336.979 448.261 328.646 495.628 334.561C514.877 337.175 534.21 338.675 553.628 339.061C565.089 340.66 576.756 341.326 588.628 341.061C594.103 342.05 599.77 342.383 605.628 342.061C605.628 347.061 605.628 352.061 605.628 357.061C578.628 357.061 551.628 357.061 524.628 357.061C519.947 356.892 515.28 356.559 510.628 356.061C468.343 347.725 427.01 351.225 386.628 366.561C363.942 375.559 345.942 390.225 332.628 410.561C328.366 411.573 324.532 410.74 321.128 408.061C317.724 410.74 313.89 411.573 309.628 410.561C294.71 389.435 275.043 374.602 250.628 366.061C233.35 357.992 215.017 353.492 195.628 352.561C169.11 351.049 142.776 352.549 116.628 357.061C89.6282 357.061 62.6282 357.061 35.6282 357.061C35.6282 351.728 35.6282 346.394 35.6282 341.061C71.3722 340.35 107.039 338.183 142.628 334.561C161.961 333.894 181.295 333.894 200.628 334.561C228.088 337.298 253.588 345.798 277.128 360.061C277.795 359.394 277.795 358.728 277.128 358.061C254.243 338.202 227.743 326.035 197.628 321.561C183.699 319.622 169.699 318.789 155.628 319.061C132.605 319.714 109.605 320.881 86.6282 322.561C74.6142 323.394 62.6142 323.227 50.6282 322.061C46.3592 316.474 46.6922 311.307 51.6282 306.561C64.9612 305.644 78.2942 304.811 91.6282 304.061C99.8212 303.945 107.821 303.278 115.628 302.061C139.966 300.691 164.299 300.858 188.628 302.561C197.693 304.182 206.693 306.016 215.628 308.061C217.644 309.788 219.977 310.622 222.628 310.561C220.996 308.741 218.996 307.575 216.628 307.061C196.424 297.386 175.091 291.22 152.628 288.561C140.485 287.558 128.318 287.058 116.128 287.061C94.6292 287.819 73.1292 287.986 51.6282 287.561C48.7992 283.157 47.9652 278.323 49.1282 273.061C49.9612 272.228 50.7952 271.394 51.6282 270.561C75.7952 270.094 99.9622 269.594 124.128 269.061C188.526 268.107 242.859 290.773 287.128 337.061C301.774 354.008 313.107 373.008 321.128 394.061C343.065 339.127 381.898 301.293 437.628 280.561C454.449 274.355 471.782 270.688 489.628 269.561C522.631 269.241 555.631 269.574 588.628 270.561C589.461 271.394 590.295 272.228 591.128 273.061C591.9 277.451 591.734 281.784 590.628 286.061C556.609 286.626 522.609 287.459 488.628 288.561C466.508 292.079 445.175 298.245 424.628 307.061Z" fill="#FAFAFB"/>
<path fill-rule="evenodd" clip-rule="evenodd" d="M115.628 302.061C107.821 303.278 99.8212 303.945 91.6282 304.061C99.4122 302.551 107.412 301.884 115.628 302.061Z" fill="#A0A4AB"/>
<path fill-rule="evenodd" clip-rule="evenodd" d="M424.628 307.061C424.97 307.899 425.636 308.233 426.628 308.061C424.812 309.182 422.812 309.682 420.628 309.561C421.599 308.08 422.932 307.246 424.628 307.061Z" fill="#8D8D8D"/>
<path fill-rule="evenodd" clip-rule="evenodd" d="M216.628 307.061C218.996 307.575 220.996 308.741 222.628 310.561C219.977 310.622 217.644 309.788 215.628 308.061C216.295 308.061 216.628 307.728 216.628 307.061Z" fill="#959599"/>
<path fill-rule="evenodd" clip-rule="evenodd" d="M553.628 339.061C534.21 338.675 514.877 337.175 495.628 334.561C448.261 328.646 403.928 336.979 362.628 359.561C367.295 355.561 371.961 351.561 376.628 347.561C402.01 331.868 429.677 322.535 459.628 319.561C489.696 318.479 519.696 319.479 549.628 322.561C562.961 323.228 576.295 323.228 589.628 322.561C590.128 322.061 590.628 321.561 591.128 321.061C591.795 316.728 591.795 312.394 591.128 308.061C590.628 307.561 590.128 307.061 589.628 306.561C567.422 305.737 545.422 304.237 523.628 302.061C529.206 301.556 534.873 301.223 540.628 301.061C554.298 305.019 567.964 305.019 581.628 301.061C584.718 302.92 587.884 303.253 591.128 302.061C591.62 303.11 591.454 304.11 590.628 305.061C590.961 306.061 591.628 306.728 592.628 307.061C593.32 311.609 593.987 316.109 594.628 320.561C593.315 322.887 591.315 324.22 588.628 324.561C577.613 324.729 566.613 325.229 555.628 326.061C556.788 325.998 558.122 326.331 559.628 327.061C560.594 328.957 560.927 330.957 560.628 333.061C557.219 333.312 553.886 332.978 550.628 332.061C547.685 332.805 544.685 333.305 541.628 333.561C541.295 333.894 540.961 334.228 540.628 334.561C546.788 336.348 553.121 337.681 559.628 338.561C557.655 339.056 555.655 339.223 553.628 339.061Z" fill="#080F1D"/>
<path fill-rule="evenodd" clip-rule="evenodd" d="M588.628 341.061C594.628 341.061 600.628 341.061 606.628 341.061C606.628 346.728 606.628 352.394 606.628 358.061C579.123 358.392 551.79 358.059 524.628 357.061C551.628 357.061 578.628 357.061 605.628 357.061C605.628 352.061 605.628 347.061 605.628 342.061C599.77 342.383 594.103 342.05 588.628 341.061Z" fill="#ADAFB8"/>
<path fill-rule="evenodd" clip-rule="evenodd" d="M510.628 356.061C503.599 355.958 496.599 355.791 489.628 355.561C488.693 357.942 488.36 360.442 488.628 363.061C485.941 362.897 483.274 363.064 480.628 363.561C481.085 363.975 481.419 364.475 481.628 365.061C465.256 365.928 448.922 366.261 432.628 366.061C495.793 366.728 558.793 367.394 621.628 368.061C556.126 367.729 490.793 368.062 425.628 369.061C395.428 370.055 369.595 381.055 348.128 402.061C347.347 403.29 346.847 404.623 346.628 406.061C349.311 426.215 340.477 436.882 320.128 438.061C312.761 438.544 306.427 436.211 301.128 431.061C297.187 426.775 294.52 421.775 293.128 416.061C292.659 411.745 293.326 407.745 295.128 404.061C279.735 388.111 261.235 377.444 239.628 372.061C245.756 371.722 251.589 372.722 257.128 375.061C258.852 374.606 260.352 373.773 261.628 372.561C259.586 370.348 257.253 369.681 254.628 370.561C253.139 369.093 251.805 367.593 250.628 366.061C275.043 374.602 294.71 389.435 309.628 410.561C313.89 411.573 317.724 410.74 321.128 408.061C324.532 410.74 328.366 411.573 332.628 410.561C345.942 390.225 363.942 375.559 386.628 366.561C427.01 351.225 468.343 347.725 510.628 356.061Z" fill="#080F1D"/>
<path fill-rule="evenodd" clip-rule="evenodd" d="M35.6281 341.061C35.6281 346.394 35.6281 351.728 35.6281 357.061C62.6281 357.061 89.6281 357.061 116.628 357.061C89.4661 358.059 62.1331 358.392 34.6281 358.061C34.3061 352.203 34.6391 346.536 35.6281 341.061Z" fill="#989BA4"/>
<path fill-rule="evenodd" clip-rule="evenodd" d="M425.628 369.061C490.793 368.062 556.126 367.729 621.628 368.061C621.951 374.583 621.618 380.916 620.628 387.061C620.628 381.061 620.628 375.061 620.628 369.061C555.628 369.061 490.628 369.061 425.628 369.061Z" fill="#636674"/>
<path fill-rule="evenodd" clip-rule="evenodd" d="M239.628 372.061C261.235 377.444 279.735 388.111 295.128 404.061C293.326 407.745 292.659 411.745 293.128 416.061C294.52 421.775 297.187 426.775 301.128 431.061C306.427 436.211 312.761 438.544 320.128 438.061C340.477 436.882 349.311 426.215 346.628 406.061C346.847 404.623 347.347 403.29 348.128 402.061C369.595 381.055 395.428 370.055 425.628 369.061C490.628 369.061 555.628 369.061 620.628 369.061C620.628 375.061 620.628 381.061 620.628 387.061C559.96 386.894 499.294 387.061 438.628 387.561C419.783 386.867 401.783 390.033 384.628 397.061C383.961 397.061 383.295 397.061 382.628 397.061C381.839 397.344 381.172 397.844 380.628 398.561C466.323 398.736 551.989 399.236 637.628 400.061C638.918 400.619 639.751 401.619 640.128 403.061C642.049 410.224 639.549 414.89 632.628 417.061C544.288 416.397 456.288 417.064 368.628 419.061C362.811 443.873 347.144 457.206 321.628 459.061C296.341 458.753 280.341 446.42 273.628 422.061C273.628 420.394 273.628 418.728 273.628 417.061C185.295 417.061 96.9611 417.061 8.62813 417.061C0.796126 414.731 -1.70387 409.731 1.12813 402.061C2.34213 400.512 3.84213 399.346 5.62813 398.561C90.9781 397.922 176.311 397.922 261.628 398.561C245.053 391.754 227.719 388.087 209.628 387.561C146.629 387.061 83.6291 386.894 20.6281 387.061C20.6281 381.061 20.6281 375.061 20.6281 369.061C85.9611 368.394 151.294 368.228 216.628 368.561C224.332 369.572 231.999 370.738 239.628 372.061Z" fill="#FBFCFC"/>
<path fill-rule="evenodd" clip-rule="evenodd" d="M51.6282 389.061C61.5182 388.854 71.3512 389.521 81.1282 391.061C90.7082 389.585 100.375 388.918 110.128 389.061C117.068 389.137 123.901 389.803 130.628 391.061C132.077 390.281 133.577 389.615 135.128 389.061C158.859 390.44 182.693 391.107 206.628 391.061C207.824 390.715 207.824 390.215 206.628 389.561C216.386 389.479 226.053 390.479 235.628 392.561C238.356 393.2 238.856 394.367 237.128 396.061C161.417 396.216 85.5842 396.049 9.62817 395.561C10.9612 395.228 12.2952 394.894 13.6282 394.561C12.7912 393.55 12.4582 392.383 12.6282 391.061C13.9612 391.061 15.2952 391.061 16.6282 391.061C16.7982 392.383 16.4652 393.55 15.6282 394.561C25.6282 395.228 35.6282 395.228 45.6282 394.561C43.9072 393.822 42.2412 392.988 40.6282 392.061C44.2902 390.659 47.9572 389.659 51.6282 389.061Z" fill="#020A21"/>
<path fill-rule="evenodd" clip-rule="evenodd" d="M634.628 396.061C557.961 396.728 481.295 397.394 404.628 398.061C397.109 398.386 389.776 398.053 382.628 397.061C383.295 397.061 383.961 397.061 384.628 397.061C467.955 396.116 551.289 395.783 634.628 396.061Z" fill="#020512"/>
<path fill-rule="evenodd" clip-rule="evenodd" d="M634.628 396.061C635.628 396.061 636.628 396.061 637.628 396.061C637.628 397.061 637.628 398.061 637.628 399.061C560.002 398.067 482.336 397.734 404.628 398.061C481.295 397.394 557.961 396.728 634.628 396.061Z" fill="#1E1F27"/>
<path fill-rule="evenodd" clip-rule="evenodd" d="M382.628 397.061C389.776 398.053 397.109 398.386 404.628 398.061C482.336 397.734 560.002 398.067 637.628 399.061C637.628 399.394 637.628 399.728 637.628 400.061C551.989 399.236 466.323 398.736 380.628 398.561C381.172 397.844 381.839 397.344 382.628 397.061Z" fill="#E1E1E5"/>
<path fill-rule="evenodd" clip-rule="evenodd" d="M8.62817 417.061C96.9612 417.061 185.295 417.061 273.628 417.061C273.628 418.728 273.628 420.394 273.628 422.061C272.694 420.993 272.36 419.66 272.628 418.061C184.46 418.394 96.4602 418.06 8.62817 417.061Z" fill="#282F36"/>
<path fill-rule="evenodd" clip-rule="evenodd" d="M632.628 417.061C544.726 417.73 456.726 418.397 368.628 419.061C456.288 417.064 544.288 416.397 632.628 417.061Z" fill="#242930"/>
</svg>
